PathFileType	4	(X/Y/Z)	 s03c0001.trc
DataRate	CameraRate	NumFrames	NumMarkers	Units	OrigDataRate	OrigDataStartFrame	OrigNumFrames
200	200	4	49	mm	200	751	2000
Frame#	Time	racr			lacr			c7			jug			rlel			rdr			llel			ldr			s2			lic			ric			lasi			rasi			rpsi			lpsi			rgt			lgt			rth1			rth2			rth3			rth4			rlfc			rmfc			rsh1			rsh2			rsh3			rsh4			rlmal			rmmal			rcal			rtoe			rmt5			rmt1			lth1			lth2			lth4			lth3			llfc			lmfc			lsh1			lsh2			lsh3			lsh4			llmal			lmmal			lcal			ltoe			lmt1			lmt5			
		X1	Y1	Z1	X2	Y2	Z2	X3	Y3	Z3	X4	Y4	Z4	X5	Y5	Z5	X6	Y6	Z6	X7	Y7	Z7	X8	Y8	Z8	X9	Y9	Z9	X10	Y10	Z10	X11	Y11	Z11	X12	Y12	Z12	X13	Y13	Z13	X14	Y14	Z14	X15	Y15	Z15	X16	Y16	Z16	X17	Y17	Z17	X18	Y18	Z18	X19	Y19	Z19	X20	Y20	Z20	X21	Y21	Z21	X22	Y22	Z22	X23	Y23	Z23	X24	Y24	Z24	X25	Y25	Z25	X26	Y26	Z26	X27	Y27	Z27	X28	Y28	Z28	X29	Y29	Z29	X30	Y30	Z30	X31	Y31	Z31	X32	Y32	Z32	X33	Y33	Z33	X34	Y34	Z34	X35	Y35	Z35	X36	Y36	Z36	X37	Y37	Z37	X38	Y38	Z38	X39	Y39	Z39	X40	Y40	Z40	X41	Y41	Z41	X42	Y42	Z42	X43	Y43	Z43	X44	Y44	Z44	X45	Y45	Z45	X46	Y46	Z46	X47	Y47	Z47	X48	Y48	Z48	X49	Y49	Z49	
751	3.7550	260.813360	1572.364294	583.440133	255.982446	1588.218087	202.458823	194.496522	1608.067256	395.949593	360.977108	1555.849775	394.389215	184.259509	1301.043596	692.040341	276.782497	1121.342979	888.274688	181.691850	1316.803251	97.693404	263.037710	1125.861486	-107.590175	158.455201	1067.208937	374.984700	293.902064	1165.336326	195.626236	286.441078	1151.410053	567.544659	356.284364	1103.971925	238.337174	356.658800	1100.459240	521.139847	159.617704	1107.834323	424.817079	163.794802	1116.206275	341.839410	268.037587	1008.943852	562.261000	282.557938	1015.675516	187.776121	281.449844	870.399088	577.387647	312.188905	786.907883	571.479588	302.122452	703.745417	556.764273	348.287991	792.367668	566.895219	296.386410	577.583901	524.871828	327.867673	557.062132	418.489489	242.247603	412.775332	552.657160	253.605386	323.731788	548.197444	218.400519	243.301784	542.468309	287.756670	320.428217	530.749973	208.800905	104.100108	531.113964	248.835156	121.950690	450.212338	165.204384	56.097403	483.444543	468.489463	91.082313	503.524780	353.428109	43.285025	563.520474	378.681807	81.220871	454.195305	293.930330	865.786585	174.804895	317.650218	782.822996	182.360011	353.667092	785.011705	184.479546	296.576763	698.066641	195.941026	311.022288	576.924387	221.235975	332.649334	558.968060	334.645406	251.968219	413.374641	184.811706	264.419142	329.129699	193.345874	229.385816	244.677192	196.673489	298.638918	325.056759	211.527714	220.608122	110.760521	206.111588	259.149273	124.849644	292.898585	172.494140	55.054177	258.078040	479.396953	92.669103	234.433369	389.076818	73.344470	286.002179	358.308687	50.734471	172.493833	
752	3.7600	260.806154	1572.357113	583.415212	256.017356	1588.224556	202.433041	194.474827	1607.832243	395.952769	360.994747	1555.841309	394.374344	184.249222	1301.078305	692.045591	276.779012	1121.373387	888.286558	181.696664	1316.836895	97.658454	263.054376	1125.894076	-107.636695	158.432659	1067.214494	374.949561	293.903784	1165.361028	195.609096	286.428977	1151.397359	567.508591	356.244964	1103.971675	238.299834	356.641349	1100.459226	521.108202	159.601466	1107.835824	424.783046	163.769174	1116.211024	341.816488	268.028662	1008.949356	562.254509	282.553745	1015.671296	187.753371	281.403277	870.415000	577.370140	312.160147	786.905253	571.451838	302.100365	703.727416	556.749340	348.247693	792.380311	566.890028	296.349439	577.590550	524.859774	327.841930	557.049897	418.462118	242.236372	412.780523	552.645351	253.600206	323.727269	548.178398	218.376149	243.301146	542.466336	287.755576	320.435485	530.750136	208.788219	104.099911	531.119998	248.815659	121.962894	450.199278	165.206472	56.068236	483.449282	468.482650	91.096014	503.550475	353.413556	43.269075	563.499335	378.676835	81.221481	454.202940	293.919670	865.786895	174.791107	317.646529	782.826217	182.348918	353.669191	785.010892	184.460126	296.593122	698.056842	195.932139	311.070022	576.926054	221.250270	332.638194	558.979792	334.637459	251.992828	413.357332	184.806237	264.423928	329.117492	193.342084	229.394391	244.655278	196.668651	298.642142	325.035239	211.524798	220.618273	110.749541	206.123107	259.156771	124.835375	292.897923	172.493794	55.046909	258.074347	479.401578	92.670612	234.447276	389.066621	73.340105	285.994753	358.279852	50.721001	172.480016	
753	3.7650	260.802621	1572.362141	583.377164	256.049035	1588.231001	202.410999	194.476962	1607.836215	395.926389	360.998347	1555.853999	394.362813	184.254757	1301.119506	692.048023	276.781672	1121.405652	888.288352	181.719243	1316.850169	97.612871	263.062339	1125.928675	-107.681630	158.390229	1067.221648	374.930779	293.904503	1165.361496	195.602922	286.399416	1151.413077	567.495856	356.273918	1103.974174	238.309771	356.617849	1100.467934	521.096134	159.595808	1107.846018	424.757710	163.739380	1116.232239	341.789818	268.003248	1008.943145	562.213380	282.539270	1015.676790	187.740990	281.378879	870.409462	577.363279	312.127540	786.904171	571.448531	302.055156	703.731704	556.726699	348.221845	792.375380	566.862689	296.333979	577.589635	524.845910	327.803912	557.057901	418.455391	242.222684	412.771907	552.634258	253.582557	323.737232	548.179953	218.367205	243.297370	542.448115	287.748431	320.420847	530.734178	208.771593	104.090295	531.132198	248.807876	121.957606	450.203931	165.206474	56.068238	483.449282	468.486311	91.105366	503.547386	353.414202	43.259329	563.512039	378.680711	81.243881	454.200903	293.922258	865.794559	174.758194	317.661196	782.828688	182.337649	353.666465	785.005195	184.432490	296.588628	698.069984	195.905536	311.060808	576.919567	221.236921	332.634655	558.976186	334.646883	251.988279	413.337925	184.792036	264.424358	329.106392	193.334411	229.391007	244.677751	196.649120	298.637527	325.024571	211.525126	220.597256	110.773091	206.108570	259.146448	124.842946	292.894761	172.494923	55.031573	258.085440	479.458792	92.700329	234.429953	389.056184	73.330105	285.993565	358.293118	50.746857	172.503208	
754	3.7700	260.799373	1572.367905	583.358190	256.073165	1588.237742	202.388590	194.476959	1607.836184	395.926393	361.001269	1555.849454	394.352963	184.257298	1301.151502	692.046468	276.770591	1121.452649	888.300052	181.721254	1316.862807	97.575471	263.056100	1125.954535	-107.746098	158.366591	1067.211408	374.896224	293.907217	1165.366365	195.591383	286.369138	1151.419955	567.469863	356.242484	1103.992470	238.297695	356.593928	1100.470147	521.063451	159.710371	1107.894775	424.854139	163.728594	1116.226927	341.762302	267.976949	1008.945718	562.206628	282.540909	1015.673850	187.729994	281.361225	870.406732	577.331090	312.098274	786.910097	571.425727	302.036228	703.742423	556.725546	348.190165	792.389458	566.859219	296.306973	577.587016	524.837432	327.779345	557.069731	418.435346	242.222394	412.785974	552.631662	253.565681	323.734273	548.166771	218.367195	243.297369	542.448111	287.739966	320.408395	530.725766	208.783296	104.090537	531.126329	248.804397	121.965613	450.207388	165.178604	56.084053	483.446396	468.483402	91.097287	503.543491	353.416693	43.260181	563.520761	378.689282	81.227090	454.195458	293.922643	865.787588	174.748099	317.647886	782.810186	182.306330	353.683421	784.991053	184.437954	296.588120	698.056655	195.896931	311.065461	576.929629	221.248811	332.610536	558.961165	334.647874	251.999089	413.347024	184.777437	264.424698	329.114421	193.329171	229.419477	244.651288	196.648410	298.636377	325.022745	211.515687	220.599962	110.752378	206.105944	259.166381	124.844073	292.901667	172.505165	55.020078	258.079377	479.385345	92.662134	234.444278	389.057561	73.329893	285.994463	358.264291	50.733386	172.489400	
